<?xml version="1.0" encoding="utf-8" standalone="no"?>
<!DOCTYPE svg PUBLIC "-//W3C//DTD SVG 1.1//EN"
  "http://www.w3.org/Graphics/SVG/1.1/DTD/svg11.dtd">
<!-- Created with matplotlib (https://matplotlib.org/) -->
<svg height="288pt" version="1.1" viewBox="0 0 432 288" width="432pt" xmlns="http://www.w3.org/2000/svg" xmlns:xlink="http://www.w3.org/1999/xlink">
 <defs>
  <style type="text/css">
*{stroke-linecap:butt;stroke-linejoin:round;}
  </style>
 </defs>
 <g id="figure_1">
  <g id="patch_1">
   <path d="M 0 288 
L 432 288 
L 432 0 
L 0 0 
z
" style="fill:#ffffff;"/>
  </g>
  <g id="axes_1">
   <g id="patch_2">
    <path d="M 54 252 
L 388.8 252 
L 388.8 34.56 
L 54 34.56 
z
" style="fill:#ffffff;"/>
   </g>
   <g id="PolyCollection_1">
    <path clip-path="url(#p358f55fc7f)" d="M 69.218182 113.073141 
L 69.218182 242.116364 
L 69.636839 242.116361 
L 70.055496 242.11633 
L 70.474153 242.116238 
L 70.89281 242.116053 
L 71.311467 242.115745 
L 71.730124 242.11528 
L 72.148781 242.114629 
L 72.567438 242.11376 
L 72.986095 155.703005 
L 73.404752 145.7363 
L 73.823409 138.890664 
L 74.242066 136.076551 
L 74.660723 135.615753 
L 75.07938 135.021533 
L 75.498037 131.075941 
L 75.916694 129.260944 
L 76.335351 127.899724 
L 76.754008 127.101556 
L 77.172665 126.90328 
L 77.591322 126.901729 
L 78.009979 126.901727 
L 78.428636 126.901725 
L 78.847293 126.901723 
L 79.26595 126.606821 
L 79.684607 124.27907 
L 80.103264 122.415585 
L 80.521921 121.519009 
L 80.940578 121.157109 
L 81.359235 121.15914 
L 81.777892 121.16035 
L 82.196549 121.162203 
L 82.615206 121.167913 
L 83.033863 121.162338 
L 83.45252 121.142812 
L 83.871177 121.150768 
L 84.289834 121.16476 
L 84.708491 121.175015 
L 85.127148 121.181289 
L 85.545805 121.169606 
L 85.964462 121.127555 
L 86.383119 121.127633 
L 86.801776 121.124385 
L 87.220433 121.045275 
L 87.63909 120.981475 
L 88.057747 120.870781 
L 88.476404 121.420294 
L 88.895061 121.401481 
L 89.313718 109.683202 
L 89.732375 109.682843 
L 90.151032 109.65074 
L 90.569689 109.575053 
L 90.988346 109.446566 
L 91.407003 109.354668 
L 91.82566 109.179867 
L 92.244317 108.588405 
L 92.662974 106.754059 
L 93.081631 104.979799 
L 93.500288 104.812075 
L 93.918945 104.812074 
L 94.337602 104.812074 
L 94.756259 103.859836 
L 95.174916 103.626075 
L 95.593573 103.622078 
L 96.01223 103.583798 
L 96.430887 103.577017 
L 96.849544 103.575622 
L 97.268201 103.575464 
L 97.686858 103.491563 
L 98.105515 103.409521 
L 98.524172 103.318797 
L 98.942829 103.318797 
L 99.361486 103.317805 
L 99.780143 103.691349 
L 100.1988 103.680966 
L 100.617457 103.23684 
L 101.036114 103.22862 
L 101.454771 103.220485 
L 101.873428 103.219887 
L 102.292085 103.219372 
L 102.710742 103.219206 
L 103.129399 103.219174 
L 103.548056 103.218585 
L 103.966713 103.218284 
L 104.38537 103.218076 
L 104.804027 103.216281 
L 105.222684 103.215041 
L 105.641341 102.382211 
L 106.059997 102.375464 
L 106.478654 102.222191 
L 106.897311 102.016901 
L 107.315968 96.646512 
L 107.734625 96.633482 
L 108.153282 96.630649 
L 108.571939 96.629885 
L 108.990596 96.321226 
L 109.409253 96.256669 
L 109.82791 98.754908 
L 110.246567 92.162757 
L 110.665224 92.084883 
L 111.083881 92.050201 
L 111.502538 92.008517 
L 111.921195 92.008552 
L 112.339852 92.008321 
L 112.758509 92.00832 
L 113.177166 91.977778 
L 113.595823 91.941758 
L 114.01448 91.901175 
L 114.433137 91.872271 
L 114.851794 91.708878 
L 115.270451 91.632862 
L 115.689108 91.341629 
L 116.107765 91.336181 
L 116.526422 91.168442 
L 116.945079 91.160248 
L 117.363736 91.090363 
L 117.782393 91.088145 
L 118.20105 91.073575 
L 118.619707 91.077646 
L 119.038364 91.050666 
L 119.457021 90.8499 
L 119.875678 90.8499 
L 120.294335 90.830579 
L 120.712992 90.59644 
L 121.131649 90.596515 
L 121.550306 90.596614 
L 121.968963 90.596772 
L 122.38762 90.597041 
L 122.806277 90.597075 
L 123.224934 90.597355 
L 123.643591 90.597383 
L 124.062248 90.5976 
L 124.480905 90.597665 
L 124.899562 90.597695 
L 125.318219 90.596416 
L 125.736876 90.598961 
L 126.155533 90.599256 
L 126.57419 90.59929 
L 126.992847 90.598219 
L 127.411504 90.574391 
L 127.830161 90.303833 
L 128.248818 90.202253 
L 128.667475 90.19425 
L 129.086132 89.018617 
L 129.504789 89.027644 
L 129.923446 89.024594 
L 130.342103 89.024235 
L 130.76076 89.000099 
L 131.179417 89.00285 
L 131.598074 89.00247 
L 132.016731 88.89296 
L 132.435388 89.979768 
L 132.854045 89.974719 
L 133.272702 89.967449 
L 133.691359 89.979461 
L 134.110016 89.931544 
L 134.528673 89.859221 
L 134.94733 89.189281 
L 135.365987 89.055611 
L 135.784644 88.931968 
L 136.203301 88.910008 
L 136.621958 88.895787 
L 137.040615 88.922383 
L 137.459272 88.922858 
L 137.877929 88.873072 
L 138.296586 88.634609 
L 138.715243 88.043362 
L 139.1339 88.040944 
L 139.552557 88.016209 
L 139.971214 87.991091 
L 140.389871 87.920607 
L 140.808528 87.912386 
L 141.227185 87.899239 
L 141.645842 87.89998 
L 142.064499 87.85561 
L 142.483156 87.888563 
L 142.901813 87.751602 
L 143.32047 87.734711 
L 143.739127 87.717806 
L 144.157784 87.859968 
L 144.576441 87.849638 
L 144.995098 87.851123 
L 145.413755 87.85685 
L 145.832412 87.857498 
L 146.251069 87.858769 
L 146.669726 87.858846 
L 147.088383 87.858981 
L 147.50704 87.861707 
L 147.925697 87.860255 
L 148.344354 87.87275 
L 148.763011 87.876462 
L 149.181668 87.864729 
L 149.600325 87.864729 
L 150.018982 87.864729 
L 150.437639 87.864729 
L 150.856296 87.864729 
L 151.274953 87.856403 
L 151.69361 87.878448 
L 152.112267 87.880143 
L 152.530924 87.805339 
L 152.949581 87.807061 
L 153.368238 87.80701 
L 153.786895 87.806187 
L 154.205552 87.807253 
L 154.624209 88.016527 
L 155.042866 88.0406 
L 155.461523 88.0406 
L 155.88018 88.040254 
L 156.298837 88.224914 
L 156.717494 88.288183 
L 157.136151 88.289711 
L 157.554808 88.288269 
L 157.973465 88.291802 
L 158.392122 88.300161 
L 158.810779 88.316609 
L 159.229436 88.337834 
L 159.648093 88.370893 
L 160.06675 88.376626 
L 160.485407 88.382287 
L 160.904064 88.38256 
L 161.322721 88.388914 
L 161.741378 88.388629 
L 162.160035 88.458813 
L 162.578692 88.497175 
L 162.997349 88.536839 
L 163.416006 88.524092 
L 163.834663 88.561264 
L 164.25332 88.563203 
L 164.671977 88.564491 
L 165.090634 88.565837 
L 165.509291 88.566313 
L 165.927948 88.566331 
L 166.346605 88.566396 
L 166.765262 88.570015 
L 167.183919 88.586028 
L 167.602576 88.595048 
L 168.021233 88.632412 
L 168.43989 88.67843 
L 168.858547 88.707798 
L 169.277204 88.760332 
L 169.695861 88.804156 
L 170.114518 88.772279 
L 170.533175 88.89278 
L 170.951832 88.90761 
L 171.370489 88.919574 
L 171.789146 88.941903 
L 172.207803 88.941903 
L 172.62646 88.941903 
L 173.045117 88.941903 
L 173.463774 88.941903 
L 173.882431 88.949582 
L 174.301088 88.959527 
L 174.719745 88.960155 
L 175.138402 89.021076 
L 175.557059 89.028115 
L 175.975716 89.046983 
L 176.394373 89.071257 
L 176.81303 89.076484 
L 177.231687 89.029552 
L 177.650344 89.037222 
L 178.069001 89.038113 
L 178.487658 89.055956 
L 178.906315 89.080002 
L 179.324972 89.08251 
L 179.743629 89.090023 
L 180.162286 89.307191 
L 180.580943 89.342852 
L 180.9996 89.373132 
L 181.418257 89.374958 
L 181.836914 89.399167 
L 182.255571 89.412304 
L 182.674228 89.424335 
L 183.092885 89.475312 
L 183.511542 89.541405 
L 183.930199 89.562238 
L 184.348856 89.562238 
L 184.767513 89.563216 
L 185.18617 89.57809 
L 185.604827 89.581358 
L 186.023484 89.596504 
L 186.442141 89.61343 
L 186.860798 89.615478 
L 187.279455 89.627759 
L 187.698112 89.664931 
L 188.116769 89.522476 
L 188.535426 89.558415 
L 188.954083 89.573646 
L 189.37274 89.579644 
L 189.791397 89.579644 
L 190.210054 89.579644 
L 190.628711 89.579644 
L 191.047368 89.579644 
L 191.466025 89.594511 
L 191.884682 89.605689 
L 192.303339 89.61517 
L 192.721996 89.619375 
L 193.140653 89.628601 
L 193.55931 89.678557 
L 193.977967 89.645437 
L 194.396624 89.646108 
L 194.815281 89.647289 
L 195.233938 89.647766 
L 195.652595 89.648648 
L 196.071252 89.648891 
L 196.489909 89.659246 
L 196.908566 89.669809 
L 197.327223 89.704529 
L 197.74588 89.397121 
L 198.164537 89.440365 
L 198.583194 90.425982 
L 199.001851 90.460823 
L 199.420508 90.460985 
L 199.839165 90.460985 
L 200.257822 90.460985 
L 200.676479 90.460985 
L 201.095136 90.460985 
L 201.513793 90.588967 
L 201.93245 90.994847 
L 202.351107 91.334148 
L 202.769764 91.460037 
L 203.188421 91.481729 
L 203.607078 91.485124 
L 204.025735 91.489386 
L 204.444392 91.489849 
L 204.863049 91.490401 
L 205.281706 91.490965 
L 205.700363 91.491166 
L 206.11902 91.492885 
L 206.537677 91.493933 
L 206.956334 91.494914 
L 207.374991 91.51199 
L 207.793648 91.595191 
L 208.212305 91.615625 
L 208.630962 91.622964 
L 209.049619 91.644861 
L 209.468276 91.676405 
L 209.886933 91.719745 
L 210.30559 91.719745 
L 210.724247 91.722716 
L 211.142904 91.561453 
L 211.561561 91.544902 
L 211.980218 91.645622 
L 212.398875 91.758684 
L 212.817532 102.468652 
L 213.236189 102.472355 
L 213.654846 102.488391 
L 214.073503 102.56824 
L 214.49216 102.641659 
L 214.910817 102.794415 
L 215.329474 102.818663 
L 215.748131 102.834464 
L 216.166788 102.847148 
L 216.585445 102.847213 
L 217.004102 102.846879 
L 217.422759 102.860381 
L 217.841416 102.88598 
L 218.260073 102.896653 
L 218.67873 102.981275 
L 219.097387 103.046216 
L 219.516044 103.811146 
L 219.934701 103.875507 
L 220.353358 103.877085 
L 220.772015 103.880051 
L 221.190672 103.902889 
L 221.609328 103.906353 
L 222.027985 103.092087 
L 222.446642 103.147363 
L 222.865299 103.169058 
L 223.283956 103.169058 
L 223.702613 103.175829 
L 224.12127 103.275103 
L 224.539927 103.276839 
L 224.958584 103.54754 
L 225.377241 103.664691 
L 225.795898 103.837238 
L 226.214555 103.893172 
L 226.633212 103.897245 
L 227.051869 103.897889 
L 227.470526 103.903963 
L 227.889183 103.915854 
L 228.30784 103.916007 
L 228.726497 103.917063 
L 229.145154 103.921265 
L 229.563811 103.924386 
L 229.982468 103.925589 
L 230.401125 103.926645 
L 230.819782 103.947929 
L 231.238439 103.949032 
L 231.657096 103.951092 
L 232.075753 103.958527 
L 232.49441 103.99995 
L 232.913067 104.000081 
L 233.331724 104.020073 
L 233.750381 104.058231 
L 234.169038 104.059245 
L 234.587695 104.079292 
L 235.006352 104.079757 
L 235.425009 104.08117 
L 235.843666 104.103287 
L 236.262323 104.106407 
L 236.68098 104.107705 
L 237.099637 104.108084 
L 237.518294 104.108353 
L 237.936951 104.112777 
L 238.355608 104.112867 
L 238.774265 104.113212 
L 239.192922 104.113258 
L 239.611579 104.113375 
L 240.030236 104.114227 
L 240.448893 104.114592 
L 240.86755 104.138519 
L 241.286207 104.143416 
L 241.704864 104.259097 
L 242.123521 104.262654 
L 242.542178 104.26298 
L 242.960835 104.26378 
L 243.379492 104.263918 
L 243.798149 104.263961 
L 244.216806 104.263965 
L 244.635463 104.264023 
L 245.05412 104.264808 
L 245.472777 104.267114 
L 245.891434 104.269005 
L 246.310091 104.275144 
L 246.728748 104.27801 
L 247.147405 104.284008 
L 247.566062 104.28894 
L 247.984719 104.289466 
L 248.403376 104.291867 
L 248.822033 104.294767 
L 249.24069 104.296006 
L 249.659347 104.297212 
L 250.078004 104.300644 
L 250.496661 104.30223 
L 250.915318 104.30268 
L 251.333975 104.303186 
L 251.752632 104.303576 
L 252.171289 104.304397 
L 252.589946 104.304425 
L 253.008603 104.304453 
L 253.42726 104.304598 
L 253.845917 104.310642 
L 254.264574 104.315722 
L 254.683231 104.592703 
L 255.101888 104.597498 
L 255.520545 104.605721 
L 255.939202 104.636141 
L 256.357859 104.641922 
L 256.776516 104.659816 
L 257.195173 104.663691 
L 257.61383 104.679466 
L 258.032487 104.694665 
L 258.451144 104.698601 
L 258.869801 104.702126 
L 259.288458 104.708351 
L 259.707115 104.720405 
L 260.125772 104.727165 
L 260.544429 104.727858 
L 260.963086 104.756978 
L 261.381743 104.782011 
L 261.8004 104.782609 
L 262.219057 104.794214 
L 262.637714 104.80872 
L 263.056371 104.813776 
L 263.475028 104.814324 
L 263.893685 104.815159 
L 264.312342 104.81684 
L 264.730999 104.817197 
L 265.149656 104.817516 
L 265.568313 104.817628 
L 265.98697 104.817782 
L 266.405627 104.817968 
L 266.824284 104.818904 
L 267.242941 104.82547 
L 267.661598 104.883575 
L 268.080255 104.910055 
L 268.498912 104.951177 
L 268.917569 104.965648 
L 269.336226 104.977573 
L 269.754883 105.011586 
L 270.17354 105.066341 
L 270.592197 105.112937 
L 271.010854 105.143859 
L 271.429511 105.172677 
L 271.848168 105.18947 
L 272.266825 105.196378 
L 272.685482 105.203383 
L 273.104139 105.204876 
L 273.522796 105.205858 
L 273.941453 105.283003 
L 274.36011 105.283221 
L 274.778767 105.284672 
L 275.197424 105.289614 
L 275.616081 105.358538 
L 276.034738 105.363307 
L 276.453395 105.367147 
L 276.872052 105.413186 
L 277.290709 105.415124 
L 277.709366 105.416451 
L 278.128023 105.475877 
L 278.54668 105.504773 
L 278.965337 105.541497 
L 279.383994 105.54251 
L 279.802651 105.554689 
L 280.221308 105.658439 
L 280.639965 105.706079 
L 281.058622 105.706079 
L 281.477279 105.778104 
L 281.895936 105.838042 
L 282.314593 105.867593 
L 282.73325 105.868257 
L 283.151907 105.872441 
L 283.570564 105.874898 
L 283.989221 105.875704 
L 284.407878 105.912924 
L 284.826535 105.921167 
L 285.245192 105.924616 
L 285.663849 105.939615 
L 286.082506 106.065834 
L 286.501163 106.108508 
L 286.91982 106.15596 
L 287.338477 106.178988 
L 287.757134 106.180954 
L 288.175791 106.180954 
L 288.594448 106.180954 
L 289.013105 106.180954 
L 289.431762 106.190462 
L 289.850419 106.190748 
L 290.269076 106.197458 
L 290.687733 106.198318 
L 291.10639 106.203192 
L 291.525047 106.200555 
L 291.943704 106.215339 
L 292.362361 106.216626 
L 292.781018 106.222483 
L 293.199675 106.236876 
L 293.618332 106.239596 
L 294.036989 106.265438 
L 294.455646 106.265987 
L 294.874303 106.272661 
L 295.29296 106.280394 
L 295.711617 106.281081 
L 296.130274 106.290503 
L 296.548931 106.316271 
L 296.967588 106.324225 
L 297.386245 106.328381 
L 297.804902 106.334456 
L 298.223559 106.337684 
L 298.642216 106.337841 
L 299.060873 106.337841 
L 299.47953 106.337841 
L 299.898187 106.337841 
L 300.316844 106.352794 
L 300.735501 106.363737 
L 301.154158 106.366785 
L 301.572815 106.369824 
L 301.991472 106.382134 
L 302.410129 106.429414 
L 302.828786 106.441257 
L 303.247443 106.442826 
L 303.6661 106.442996 
L 304.084757 106.443149 
L 304.503414 106.443269 
L 304.922071 106.443319 
L 305.340728 106.443354 
L 305.759385 106.443375 
L 306.178042 106.443428 
L 306.596699 106.443478 
L 307.015356 106.443558 
L 307.434013 106.443621 
L 307.85267 106.4437 
L 308.271327 106.443791 
L 308.689984 106.443799 
L 309.108641 106.443828 
L 309.527298 106.443834 
L 309.945955 106.448238 
L 310.364612 106.449301 
L 310.783269 107.358278 
L 311.201926 106.475739 
L 311.620583 106.476396 
L 312.03924 106.476676 
L 312.457897 106.476676 
L 312.876554 106.476676 
L 313.295211 106.497288 
L 313.713868 106.509324 
L 314.132525 106.509994 
L 314.551182 106.510482 
L 314.969839 106.511541 
L 315.388496 106.511834 
L 315.807153 106.512029 
L 316.22581 106.512075 
L 316.644467 106.512105 
L 317.063124 106.512225 
L 317.481781 106.517455 
L 317.900438 106.529358 
L 318.319095 106.531407 
L 318.737752 106.536693 
L 319.156409 106.537106 
L 319.575066 106.563957 
L 319.993723 106.567262 
L 320.41238 106.570093 
L 320.831037 106.570264 
L 321.249694 106.571309 
L 321.668351 106.573306 
L 322.087008 106.573314 
L 322.505665 106.57366 
L 322.924322 106.573912 
L 323.342979 106.578478 
L 323.761636 107.025668 
L 324.180293 107.048505 
L 324.59895 107.049649 
L 325.017607 107.049591 
L 325.436264 107.054696 
L 325.854921 107.057755 
L 326.273578 107.058205 
L 326.692235 107.05778 
L 327.110892 107.05753 
L 327.529549 107.050353 
L 327.948206 107.04792 
L 328.366863 107.050245 
L 328.78552 107.050245 
L 329.204177 107.050314 
L 329.622834 107.053246 
L 330.041491 107.055382 
L 330.460148 107.067851 
L 330.878805 107.089582 
L 331.297462 107.1028 
L 331.716119 107.103669 
L 332.134776 107.103777 
L 332.553433 107.103818 
L 332.97209 107.103965 
L 333.390747 107.105131 
L 333.809404 107.105729 
L 334.228061 107.105916 
L 334.646718 107.105976 
L 335.065375 107.10651 
L 335.484032 107.106512 
L 335.902689 107.106588 
L 336.321346 107.106613 
L 336.740003 107.106838 
L 337.158659 107.107898 
L 337.577316 106.951447 
L 337.995973 106.955963 
L 338.41463 106.956402 
L 338.833287 106.975605 
L 339.251944 107.311101 
L 339.670601 107.310187 
L 340.089258 107.309973 
L 340.507915 107.309973 
L 340.926572 107.309005 
L 341.345229 107.298523 
L 341.763886 107.298456 
L 342.182543 107.298554 
L 342.6012 107.29858 
L 343.019857 107.298588 
L 343.438514 107.29831 
L 343.857171 107.298688 
L 344.275828 107.298706 
L 344.694485 107.295306 
L 345.113142 107.295473 
L 345.531799 107.294675 
L 345.950456 107.294285 
L 346.369113 107.294175 
L 346.78777 107.294204 
L 347.206427 107.29427 
L 347.625084 107.294286 
L 348.043741 107.294317 
L 348.462398 107.294362 
L 348.881055 107.294223 
L 349.299712 107.289045 
L 349.718369 107.288476 
L 350.137026 107.288228 
L 350.555683 107.287984 
L 350.97434 107.286943 
L 351.392997 107.281478 
L 351.811654 107.281913 
L 352.230311 107.279273 
L 352.648968 107.277396 
L 353.067625 107.121956 
L 353.486282 107.121975 
L 353.904939 107.06591 
L 354.323596 107.098164 
L 354.742253 107.098177 
L 355.16091 107.098202 
L 355.579567 107.098226 
L 355.998224 107.098251 
L 356.416881 107.097691 
L 356.835538 107.096679 
L 357.254195 107.096737 
L 357.672852 107.096737 
L 358.091509 107.095686 
L 358.510166 107.095697 
L 358.928823 107.095838 
L 359.34748 107.095844 
L 359.766137 107.095845 
L 360.184794 107.095875 
L 360.603451 107.09588 
L 361.022108 107.095913 
L 361.440765 107.095919 
L 361.859422 107.095944 
L 362.278079 107.094908 
L 362.696736 107.094665 
L 363.115393 107.094671 
L 363.53405 107.094663 
L 363.952707 107.094407 
L 364.371364 107.094009 
L 364.790021 107.089606 
L 365.208678 107.089909 
L 365.627335 107.067897 
L 366.045992 107.064683 
L 366.464649 107.064215 
L 366.883306 107.063201 
L 367.301963 107.063167 
L 367.72062 107.062084 
L 368.139277 107.061404 
L 368.557934 107.059037 
L 368.976591 107.059036 
L 369.395248 107.044361 
L 369.813905 107.030138 
L 370.232562 107.023602 
L 370.651219 107.021517 
L 371.069876 106.91688 
L 371.488533 106.915842 
L 371.90719 106.915468 
L 372.325847 106.915468 
L 372.744504 106.911061 
L 373.163161 106.909073 
L 373.581818 106.902587 
L 373.581818 83.272 
L 373.581818 83.272 
L 373.163161 83.191166 
L 372.744504 83.17233 
L 372.325847 83.167851 
L 371.90719 83.167851 
L 371.488533 83.165976 
L 371.069876 83.16067 
L 370.651219 83.218853 
L 370.232562 83.206332 
L 369.813905 83.180695 
L 369.395248 83.133291 
L 368.976591 83.041614 
L 368.557934 83.041503 
L 368.139277 83.006732 
L 367.72062 82.991848 
L 367.301963 82.97982 
L 366.883306 82.979358 
L 366.464649 82.965096 
L 366.045992 82.948191 
L 365.627335 82.940024 
L 365.208678 82.930434 
L 364.790021 82.925475 
L 364.371364 82.882537 
L 363.952707 82.867551 
L 363.53405 82.859092 
L 363.115393 82.857904 
L 362.696736 82.857122 
L 362.278079 82.838578 
L 361.859422 82.79788 
L 361.440765 82.796746 
L 361.022108 82.796577 
L 360.603451 82.795845 
L 360.184794 82.795557 
L 359.766137 82.794413 
L 359.34748 82.79439 
L 358.928823 82.794185 
L 358.510166 82.788471 
L 358.091509 82.788074 
L 357.672852 82.76873 
L 357.254195 82.76866 
L 356.835538 82.760653 
L 356.416881 82.743059 
L 355.998224 82.734757 
L 355.579567 82.733539 
L 355.16091 82.732532 
L 354.742253 82.731436 
L 354.323596 82.730788 
L 353.904939 82.562297 
L 353.486282 82.572824 
L 353.067625 82.572173 
L 352.648968 82.648486 
L 352.230311 82.604919 
L 351.811654 82.543923 
L 351.392997 82.538041 
L 350.97434 82.511467 
L 350.555683 82.501672 
L 350.137026 82.495988 
L 349.718369 82.489173 
L 349.299712 82.478679 
L 348.881055 82.45896 
L 348.462398 82.457811 
L 348.043741 82.455682 
L 347.625084 82.453858 
L 347.206427 82.453056 
L 346.78777 82.447483 
L 346.369113 82.446078 
L 345.950456 82.433555 
L 345.531799 82.406172 
L 345.113142 82.392774 
L 344.694485 82.384214 
L 344.275828 82.371694 
L 343.857171 82.370416 
L 343.438514 82.367736 
L 343.019857 82.364477 
L 342.6012 82.364297 
L 342.182543 82.362983 
L 341.763886 82.359436 
L 341.345229 82.359157 
L 340.926572 82.304359 
L 340.507915 82.299936 
L 340.089258 82.299936 
L 339.670601 82.298688 
L 339.251944 82.285279 
L 338.833287 80.618009 
L 338.41463 80.327759 
L 337.995973 80.267687 
L 337.577316 79.92789 
L 337.158659 80.017706 
L 336.740003 80.01072 
L 336.321346 80.006883 
L 335.902689 80.006678 
L 335.484032 80.005835 
L 335.065375 80.005344 
L 334.646718 80.001442 
L 334.228061 80.000948 
L 333.809404 79.999338 
L 333.390747 79.994211 
L 332.97209 79.980781 
L 332.553433 79.979513 
L 332.134776 79.978924 
L 331.716119 79.977984 
L 331.297462 79.970551 
L 330.878805 79.679324 
L 330.460148 79.342409 
L 330.041491 79.063452 
L 329.622834 79.001168 
L 329.204177 78.938041 
L 328.78552 78.936517 
L 328.366863 78.936517 
L 327.948206 78.89626 
L 327.529549 78.8566 
L 327.110892 78.846419 
L 326.692235 78.819132 
L 326.273578 78.808782 
L 325.854921 78.79689 
L 325.436264 78.772234 
L 325.017607 78.714443 
L 324.59895 78.712686 
L 324.180293 78.664078 
L 323.761636 78.315312 
L 323.342979 77.841954 
L 322.924322 77.771855 
L 322.505665 77.757637 
L 322.087008 77.753009 
L 321.668351 77.752903 
L 321.249694 77.730596 
L 320.831037 77.71921 
L 320.41238 77.717908 
L 319.993723 77.694139 
L 319.575066 77.674934 
L 319.156409 77.465863 
L 318.737752 77.463515 
L 318.319095 77.416779 
L 317.900438 77.397374 
L 317.481781 77.307821 
L 317.063124 77.276514 
L 316.644467 77.2758 
L 316.22581 77.275628 
L 315.807153 77.275349 
L 315.388496 77.274217 
L 314.969839 77.272505 
L 314.551182 77.266389 
L 314.132525 77.263599 
L 313.713868 77.259589 
L 313.295211 77.158992 
L 312.876554 77.037543 
L 312.457897 77.037543 
L 312.03924 77.037542 
L 311.620583 77.034334 
L 311.201926 77.022372 
L 310.783269 76.919436 
L 310.364612 75.707232 
L 309.945955 75.699249 
L 309.527298 75.679793 
L 309.108641 75.679765 
L 308.689984 75.679585 
L 308.271327 75.679545 
L 307.85267 75.679077 
L 307.434013 75.678677 
L 307.015356 75.67835 
L 306.596699 75.678017 
L 306.178042 75.677757 
L 305.759385 75.677489 
L 305.340728 75.677385 
L 304.922071 75.677203 
L 304.503414 75.676938 
L 304.084757 75.676325 
L 303.6661 75.675483 
L 303.247443 75.674564 
L 302.828786 75.665903 
L 302.410129 75.603353 
L 301.991472 75.348614 
L 301.572815 75.28243 
L 301.154158 75.263052 
L 300.735501 75.224444 
L 300.316844 75.11286 
L 299.898187 74.988511 
L 299.47953 74.988511 
L 299.060873 74.988511 
L 298.642216 74.988511 
L 298.223559 74.987226 
L 297.804902 74.962226 
L 297.386245 74.917768 
L 296.967588 74.904447 
L 296.548931 74.845275 
L 296.130274 74.708546 
L 295.711617 74.662499 
L 295.29296 74.658773 
L 294.874303 74.612311 
L 294.455646 74.564276 
L 294.036989 74.560448 
L 293.618332 74.414841 
L 293.199675 74.399727 
L 292.781018 74.304401 
L 292.362361 74.262686 
L 291.943704 74.256593 
L 291.525047 74.183432 
L 291.10639 74.17847 
L 290.687733 74.153234 
L 290.269076 74.139548 
L 289.850419 74.087795 
L 289.431762 74.08577 
L 289.013105 74.018578 
L 288.594448 74.018578 
L 288.175791 74.018578 
L 287.757134 74.018578 
L 287.338477 74.008856 
L 286.91982 73.895893 
L 286.501163 73.628939 
L 286.082506 73.376372 
L 285.663849 72.875813 
L 285.245192 72.806004 
L 284.826535 72.789956 
L 284.407878 72.762239 
L 283.989221 72.590464 
L 283.570564 72.587292 
L 283.151907 72.577577 
L 282.73325 72.560059 
L 282.314593 72.556306 
L 281.895936 72.419025 
L 281.477279 72.185235 
L 281.058622 71.855214 
L 280.639965 71.855214 
L 280.221308 71.67298 
L 279.802651 71.28644 
L 279.383994 71.239719 
L 278.965337 71.228636 
L 278.54668 71.056215 
L 278.128023 70.944237 
L 277.709366 70.686369 
L 277.290709 70.681786 
L 276.872052 70.674467 
L 276.453395 70.501796 
L 276.034738 70.488533 
L 275.616081 70.472167 
L 275.197424 70.305802 
L 274.778767 70.28737 
L 274.36011 70.282469 
L 273.941453 70.281738 
L 273.522796 70.008896 
L 273.104139 70.00564 
L 272.685482 70.000752 
L 272.266825 69.976149 
L 271.848168 69.947594 
L 271.429511 69.878602 
L 271.010854 69.761814 
L 270.592197 69.637445 
L 270.17354 69.454149 
L 269.754883 69.245431 
L 269.336226 69.113328 
L 268.917569 69.080356 
L 268.498912 69.032897 
L 268.080255 68.88373 
L 267.661598 68.799931 
L 267.242941 68.618746 
L 266.824284 68.598038 
L 266.405627 68.595164 
L 265.98697 68.5946 
L 265.568313 68.594135 
L 265.149656 68.593794 
L 264.730999 68.592822 
L 264.312342 68.591743 
L 263.893685 68.586668 
L 263.475028 68.5841 
L 263.056371 68.582415 
L 262.637714 68.561098 
L 262.219057 68.506084 
L 261.8004 68.467037 
L 261.381743 68.464697 
L 260.963086 68.385516 
L 260.544429 68.294929 
L 260.125772 68.292763 
L 259.707115 68.272093 
L 259.288458 68.235033 
L 258.869801 68.216029 
L 258.451144 68.205388 
L 258.032487 68.192817 
L 257.61383 68.145059 
L 257.195173 68.096778 
L 256.776516 68.084989 
L 256.357859 68.027877 
L 255.939202 68.009441 
L 255.520545 67.913519 
L 255.101888 67.888563 
L 254.683231 67.873911 
L 254.264574 67.016799 
L 253.845917 67.002269 
L 253.42726 66.9852 
L 253.008603 66.98479 
L 252.589946 66.984711 
L 252.171289 66.984625 
L 251.752632 66.982306 
L 251.333975 66.981207 
L 250.915318 66.979786 
L 250.496661 66.978519 
L 250.078004 66.974078 
L 249.659347 66.965043 
L 249.24069 66.961647 
L 248.822033 66.958052 
L 248.403376 66.949803 
L 247.984719 66.943041 
L 247.566062 66.941569 
L 247.147405 66.92817 
L 246.728748 66.911385 
L 246.310091 66.903299 
L 245.891434 66.886077 
L 245.472777 66.880734 
L 245.05412 66.87377 
L 244.635463 66.871589 
L 244.216806 66.871428 
L 243.798149 66.871417 
L 243.379492 66.871297 
L 242.960835 66.87091 
L 242.542178 66.868649 
L 242.123521 66.867727 
L 241.704864 66.857738 
L 241.286207 66.504193 
L 240.86755 66.489004 
L 240.448893 66.429279 
L 240.030236 66.428285 
L 239.611579 66.425917 
L 239.192922 66.425597 
L 238.774265 66.425471 
L 238.355608 66.424519 
L 237.936951 66.424271 
L 237.518294 66.412115 
L 237.099637 66.411377 
L 236.68098 66.410336 
L 236.262323 66.406775 
L 235.843666 66.397966 
L 235.425009 66.3401 
L 235.006352 66.336226 
L 234.587695 66.334959 
L 234.169038 66.27439 
L 233.750381 66.271602 
L 233.331724 66.141553 
L 232.913067 66.071407 
L 232.49441 66.070966 
L 232.075753 65.954915 
L 231.657096 65.934739 
L 231.238439 65.929168 
L 230.819782 65.9262 
L 230.401125 65.868828 
L 229.982468 65.865998 
L 229.563811 65.862686 
L 229.145154 65.854264 
L 228.726497 65.842861 
L 228.30784 65.840003 
L 227.889183 65.83959 
L 227.470526 65.80721 
L 227.051869 65.790642 
L 226.633212 65.788899 
L 226.214555 65.777642 
L 225.795898 65.625441 
L 225.377241 65.09442 
L 224.958584 64.74415 
L 224.539927 63.942509 
L 224.12127 63.937406 
L 223.702613 63.649578 
L 223.283956 63.631242 
L 222.865299 63.631242 
L 222.446642 63.569113 
L 222.027985 63.412209 
L 221.609328 63.349627 
L 221.190672 63.341442 
L 220.772015 63.288295 
L 220.353358 63.28108 
L 219.934701 63.276837 
L 219.516044 63.06538 
L 219.097387 61.057735 
L 218.67873 60.900206 
L 218.260073 60.711476 
L 217.841416 60.68694 
L 217.422759 60.629943 
L 217.004102 60.59943 
L 216.585445 60.595495 
L 216.166788 60.595354 
L 215.748131 60.56738 
L 215.329474 60.532403 
L 214.910817 60.478248 
L 214.49216 60.11651 
L 214.073503 59.943354 
L 213.654846 59.754505 
L 213.236189 59.719925 
L 212.817532 59.711786 
L 212.398875 59.358779 
L 211.980218 59.168807 
L 211.561561 58.998875 
L 211.142904 58.937578 
L 210.724247 58.879681 
L 210.30559 58.873816 
L 209.886933 58.873815 
L 209.468276 58.797403 
L 209.049619 58.709656 
L 208.630962 58.675134 
L 208.212305 58.662797 
L 207.793648 58.630583 
L 207.374991 58.474967 
L 206.956334 58.447384 
L 206.537677 58.445823 
L 206.11902 58.444236 
L 205.700363 58.441466 
L 205.281706 58.441165 
L 204.863049 58.440316 
L 204.444392 58.439502 
L 204.025735 58.438809 
L 203.607078 58.432364 
L 203.188421 58.426996 
L 202.769764 58.393687 
L 202.351107 58.1789 
L 201.93245 57.518174 
L 201.513793 56.657978 
L 201.095136 56.385482 
L 200.676479 56.385482 
L 200.257822 56.385482 
L 199.839165 56.385482 
L 199.420508 56.385482 
L 199.001851 56.385141 
L 198.583194 56.310229 
L 198.164537 55.217031 
L 197.74588 55.145539 
L 197.327223 55.131119 
L 196.908566 55.032055 
L 196.489909 55.009901 
L 196.071252 54.995561 
L 195.652595 54.994639 
L 195.233938 54.993291 
L 194.815281 54.99255 
L 194.396624 54.990738 
L 193.977967 54.989681 
L 193.55931 54.981306 
L 193.140653 54.854683 
L 192.721996 54.828946 
L 192.303339 54.821641 
L 191.884682 54.807552 
L 191.466025 54.791325 
L 191.047368 54.760633 
L 190.628711 54.760633 
L 190.210054 54.760633 
L 189.791397 54.760633 
L 189.37274 54.760633 
L 188.954083 54.75004 
L 188.535426 54.713333 
L 188.116769 54.625022 
L 187.698112 54.553139 
L 187.279455 54.473263 
L 186.860798 54.445469 
L 186.442141 54.441396 
L 186.023484 54.411253 
L 185.604827 54.383534 
L 185.18617 54.378507 
L 184.767513 54.333659 
L 184.348856 54.331852 
L 183.930199 54.331852 
L 183.511542 54.280577 
L 183.092885 53.985839 
L 182.674228 53.845891 
L 182.255571 53.821125 
L 181.836914 53.791344 
L 181.418257 53.700773 
L 180.9996 53.695819 
L 180.580943 53.614948 
L 180.162286 53.474219 
L 179.743629 53.138038 
L 179.324972 53.126484 
L 178.906315 53.11885 
L 178.487658 53.065516 
L 178.069001 53.02495 
L 177.650344 53.023357 
L 177.231687 53.009743 
L 176.81303 53.004915 
L 176.394373 52.988893 
L 175.975716 52.922279 
L 175.557059 52.874725 
L 175.138402 52.839643 
L 174.719745 52.628617 
L 174.301088 52.627377 
L 173.882431 52.594743 
L 173.463774 52.577636 
L 173.045117 52.577636 
L 172.62646 52.577636 
L 172.207803 52.577635 
L 171.789146 52.577635 
L 171.370489 52.52811 
L 170.951832 52.498224 
L 170.533175 52.454304 
L 170.114518 52.236752 
L 169.695861 52.182122 
L 169.277204 52.007907 
L 168.858547 51.900254 
L 168.43989 51.838538 
L 168.021233 51.741176 
L 167.602576 51.663745 
L 167.183919 51.631614 
L 166.765262 51.572489 
L 166.346605 51.565916 
L 165.927948 51.565805 
L 165.509291 51.565776 
L 165.090634 51.564938 
L 164.671977 51.562572 
L 164.25332 51.560459 
L 163.834663 51.543782 
L 163.416006 51.435985 
L 162.997349 51.200422 
L 162.578692 51.063652 
L 162.160035 50.849917 
L 161.741378 50.718716 
L 161.322721 50.717818 
L 160.904064 50.70585 
L 160.485407 50.705414 
L 160.06675 50.694588 
L 159.648093 50.6822 
L 159.229436 50.627625 
L 158.810779 50.581645 
L 158.392122 50.517608 
L 157.973465 50.492418 
L 157.554808 50.47079 
L 157.136151 50.355297 
L 156.717494 50.351538 
L 156.298837 50.11454 
L 155.88018 49.486008 
L 155.461523 49.483808 
L 155.042866 49.483808 
L 154.624209 49.344303 
L 154.205552 49.19481 
L 153.786895 49.065809 
L 153.368238 49.055289 
L 152.949581 49.054961 
L 152.530924 49.03842 
L 152.112267 48.985616 
L 151.69361 48.980257 
L 151.274953 48.880492 
L 150.856296 48.750465 
L 150.437639 48.750465 
L 150.018982 48.750465 
L 149.600325 48.750465 
L 149.181668 48.750465 
L 148.763011 48.666694 
L 148.344354 48.614851 
L 147.925697 48.583184 
L 147.50704 48.573699 
L 147.088383 48.567101 
L 146.669726 48.56682 
L 146.251069 48.566683 
L 145.832412 48.564063 
L 145.413755 48.562262 
L 144.995098 48.550299 
L 144.576441 48.546951 
L 144.157784 48.471508 
L 143.739127 48.2471 
L 143.32047 48.148207 
L 142.901813 47.990297 
L 142.483156 47.975585 
L 142.064499 47.909923 
L 141.645842 47.895905 
L 141.227185 47.865241 
L 140.808528 47.861089 
L 140.389871 47.83123 
L 139.971214 47.674756 
L 139.552557 47.566812 
L 139.1339 47.489869 
L 138.715243 47.486133 
L 138.296586 47.4223 
L 137.877929 47.344299 
L 137.459272 47.305105 
L 137.040615 47.239121 
L 136.621958 46.975691 
L 136.203301 46.925108 
L 135.784644 46.79593 
L 135.365987 46.817217 
L 134.94733 46.75753 
L 134.528673 46.901011 
L 134.110016 46.848209 
L 133.691359 46.750977 
L 133.272702 46.715324 
L 132.854045 46.709821 
L 132.435388 46.621227 
L 132.016731 45.230618 
L 131.598074 45.219392 
L 131.179417 45.216143 
L 130.76076 45.210497 
L 130.342103 45.196453 
L 129.923446 45.196166 
L 129.504789 45.191556 
L 129.086132 45.118138 
L 128.667475 45.416572 
L 128.248818 45.413063 
L 127.830161 45.320392 
L 127.411504 45.207779 
L 126.992847 45.173496 
L 126.57419 45.168388 
L 126.155533 45.166798 
L 125.736876 45.16352 
L 125.318219 45.158547 
L 124.899562 45.15611 
L 124.480905 45.155697 
L 124.062248 45.155401 
L 123.643591 45.153318 
L 123.224934 45.153129 
L 122.806277 45.152108 
L 122.38762 45.151901 
L 121.968963 45.15107 
L 121.550306 45.150125 
L 121.131649 45.148825 
L 120.712992 45.148082 
L 120.294335 45.110323 
L 119.875678 45.06517 
L 119.457021 45.06517 
L 119.038364 44.971788 
L 118.619707 44.939782 
L 118.20105 44.899182 
L 117.782393 44.818051 
L 117.363736 44.814381 
L 116.945079 44.772199 
L 116.526422 44.767319 
L 116.107765 44.668677 
L 115.689108 44.623768 
L 115.270451 44.503621 
L 114.851794 44.506301 
L 114.433137 44.538563 
L 114.01448 44.53402 
L 113.595823 44.521652 
L 113.177166 44.510783 
L 112.758509 44.503973 
L 112.339852 44.503962 
L 111.921195 44.502685 
L 111.502538 44.501918 
L 111.083881 44.496871 
L 110.665224 44.469271 
L 110.246567 44.443636 
L 109.82791 46.579717 
L 109.409253 44.653879 
L 108.990596 44.60489 
L 108.571939 44.501468 
L 108.153282 44.499023 
L 107.734625 44.496066 
L 107.315968 44.490659 
L 106.897311 46.568281 
L 106.478654 46.588458 
L 106.059997 46.560584 
L 105.641341 46.558942 
L 105.222684 46.904361 
L 104.804027 46.904024 
L 104.38537 46.902989 
L 103.966713 46.902807 
L 103.548056 46.902598 
L 103.129399 46.901813 
L 102.710742 46.901788 
L 102.292085 46.901507 
L 101.873428 46.901069 
L 101.454771 46.900705 
L 101.036114 46.902354 
L 100.617457 46.898059 
L 100.1988 47.067878 
L 99.780143 47.06371 
L 99.361486 46.765619 
L 98.942829 46.765774 
L 98.524172 46.765774 
L 98.105515 46.781116 
L 97.686858 46.771798 
L 97.268201 46.740288 
L 96.849544 46.740219 
L 96.430887 46.738932 
L 96.01223 46.734903 
L 95.593573 46.734692 
L 95.174916 46.733583 
L 94.756259 46.82941 
L 94.337602 47.073507 
L 93.918945 47.073507 
L 93.500288 47.073508 
L 93.081631 47.111317 
L 92.662974 47.538226 
L 92.244317 48.322203 
L 91.82566 48.512064 
L 91.407003 48.562834 
L 90.988346 48.591695 
L 90.569689 48.628347 
L 90.151032 48.653185 
L 89.732375 48.657859 
L 89.313718 48.657974 
L 88.895061 59.998641 
L 88.476404 59.460587 
L 88.057747 58.205282 
L 87.63909 57.971753 
L 87.220433 57.934086 
L 86.801776 57.916322 
L 86.383119 57.912959 
L 85.964462 57.902811 
L 85.545805 57.899552 
L 85.127148 57.642133 
L 84.708491 57.598259 
L 84.289834 57.537468 
L 83.871177 57.450897 
L 83.45252 57.392116 
L 83.033863 57.139865 
L 82.615206 57.086224 
L 82.196549 57.014122 
L 81.777892 56.98597 
L 81.359235 56.977607 
L 80.940578 56.966741 
L 80.521921 56.70092 
L 80.103264 56.259666 
L 79.684607 55.441218 
L 79.26595 55.230878 
L 78.847293 55.266189 
L 78.428636 55.26619 
L 78.009979 55.26619 
L 77.591322 55.26619 
L 77.172665 55.266462 
L 76.754008 55.291151 
L 76.335351 55.242823 
L 75.916694 55.28867 
L 75.498037 55.449254 
L 75.07938 56.363022 
L 74.660723 56.496654 
L 74.242066 56.591055 
L 73.823409 57.752979 
L 73.404752 60.247957 
L 72.986095 63.042755 
L 72.567438 113.071431 
L 72.148781 113.072002 
L 71.730124 113.072429 
L 71.311467 113.072734 
L 70.89281 113.072937 
L 70.474153 113.073058 
L 70.055496 113.073119 
L 69.636839 113.073139 
L 69.218182 113.073141 
z
" style="fill:#1f77b4;fill-opacity:0.2;"/>
   </g>
   <g id="matplotlib.axis_1">
    <g id="xtick_1">
     <g id="line2d_1">
      <defs>
       <path d="M 0 0 
L 0 3.5 
" id="mce5f706bd1" style="stroke:#000000;stroke-width:0.8;"/>
      </defs>
      <g>
       <use style="stroke:#000000;stroke-width:0.8;" x="69.218182" xlink:href="#mce5f706bd1" y="252"/>
      </g>
     </g>
     <g id="text_1">
      <!-- 0 -->
      <defs>
       <path d="M 31.78125 66.40625 
Q 24.171875 66.40625 20.328125 58.90625 
Q 16.5 51.421875 16.5 36.375 
Q 16.5 21.390625 20.328125 13.890625 
Q 24.171875 6.390625 31.78125 6.390625 
Q 39.453125 6.390625 43.28125 13.890625 
Q 47.125 21.390625 47.125 36.375 
Q 47.125 51.421875 43.28125 58.90625 
Q 39.453125 66.40625 31.78125 66.40625 
z
M 31.78125 74.21875 
Q 44.046875 74.21875 50.515625 64.515625 
Q 56.984375 54.828125 56.984375 36.375 
Q 56.984375 17.96875 50.515625 8.265625 
Q 44.046875 -1.421875 31.78125 -1.421875 
Q 19.53125 -1.421875 13.0625 8.265625 
Q 6.59375 17.96875 6.59375 36.375 
Q 6.59375 54.828125 13.0625 64.515625 
Q 19.53125 74.21875 31.78125 74.21875 
z
" id="DejaVuSans-48"/>
      </defs>
      <g transform="translate(66.036932 266.598437)scale(0.1 -0.1)">
       <use xlink:href="#DejaVuSans-48"/>
      </g>
     </g>
    </g>
    <g id="xtick_2">
     <g id="line2d_2">
      <g>
       <use style="stroke:#000000;stroke-width:0.8;" x="111.083881" xlink:href="#mce5f706bd1" y="252"/>
      </g>
     </g>
     <g id="text_2">
      <!-- 100 -->
      <defs>
       <path d="M 12.40625 8.296875 
L 28.515625 8.296875 
L 28.515625 63.921875 
L 10.984375 60.40625 
L 10.984375 69.390625 
L 28.421875 72.90625 
L 38.28125 72.90625 
L 38.28125 8.296875 
L 54.390625 8.296875 
L 54.390625 0 
L 12.40625 0 
z
" id="DejaVuSans-49"/>
      </defs>
      <g transform="translate(101.540131 266.598437)scale(0.1 -0.1)">
       <use xlink:href="#DejaVuSans-49"/>
       <use x="63.623047" xlink:href="#DejaVuSans-48"/>
       <use x="127.246094" xlink:href="#DejaVuSans-48"/>
      </g>
     </g>
    </g>
    <g id="xtick_3">
     <g id="line2d_3">
      <g>
       <use style="stroke:#000000;stroke-width:0.8;" x="152.949581" xlink:href="#mce5f706bd1" y="252"/>
      </g>
     </g>
     <g id="text_3">
      <!-- 200 -->
      <defs>
       <path d="M 19.1875 8.296875 
L 53.609375 8.296875 
L 53.609375 0 
L 7.328125 0 
L 7.328125 8.296875 
Q 12.9375 14.109375 22.625 23.890625 
Q 32.328125 33.6875 34.8125 36.53125 
Q 39.546875 41.84375 41.421875 45.53125 
Q 43.3125 49.21875 43.3125 52.78125 
Q 43.3125 58.59375 39.234375 62.25 
Q 35.15625 65.921875 28.609375 65.921875 
Q 23.96875 65.921875 18.8125 64.3125 
Q 13.671875 62.703125 7.8125 59.421875 
L 7.8125 69.390625 
Q 13.765625 71.78125 18.9375 73 
Q 24.125 74.21875 28.421875 74.21875 
Q 39.75 74.21875 46.484375 68.546875 
Q 53.21875 62.890625 53.21875 53.421875 
Q 53.21875 48.921875 51.53125 44.890625 
Q 49.859375 40.875 45.40625 35.40625 
Q 44.1875 33.984375 37.640625 27.21875 
Q 31.109375 20.453125 19.1875 8.296875 
z
" id="DejaVuSans-50"/>
      </defs>
      <g transform="translate(143.405831 266.598437)scale(0.1 -0.1)">
       <use xlink:href="#DejaVuSans-50"/>
       <use x="63.623047" xlink:href="#DejaVuSans-48"/>
       <use x="127.246094" xlink:href="#DejaVuSans-48"/>
      </g>
     </g>
    </g>
    <g id="xtick_4">
     <g id="line2d_4">
      <g>
       <use style="stroke:#000000;stroke-width:0.8;" x="194.815281" xlink:href="#mce5f706bd1" y="252"/>
      </g>
     </g>
     <g id="text_4">
      <!-- 300 -->
      <defs>
       <path d="M 40.578125 39.3125 
Q 47.65625 37.796875 51.625 33 
Q 55.609375 28.21875 55.609375 21.1875 
Q 55.609375 10.40625 48.1875 4.484375 
Q 40.765625 -1.421875 27.09375 -1.421875 
Q 22.515625 -1.421875 17.65625 -0.515625 
Q 12.796875 0.390625 7.625 2.203125 
L 7.625 11.71875 
Q 11.71875 9.328125 16.59375 8.109375 
Q 21.484375 6.890625 26.8125 6.890625 
Q 36.078125 6.890625 40.9375 10.546875 
Q 45.796875 14.203125 45.796875 21.1875 
Q 45.796875 27.640625 41.28125 31.265625 
Q 36.765625 34.90625 28.71875 34.90625 
L 20.21875 34.90625 
L 20.21875 43.015625 
L 29.109375 43.015625 
Q 36.375 43.015625 40.234375 45.921875 
Q 44.09375 48.828125 44.09375 54.296875 
Q 44.09375 59.90625 40.109375 62.90625 
Q 36.140625 65.921875 28.71875 65.921875 
Q 24.65625 65.921875 20.015625 65.03125 
Q 15.375 64.15625 9.8125 62.3125 
L 9.8125 71.09375 
Q 15.4375 72.65625 20.34375 73.4375 
Q 25.25 74.21875 29.59375 74.21875 
Q 40.828125 74.21875 47.359375 69.109375 
Q 53.90625 64.015625 53.90625 55.328125 
Q 53.90625 49.265625 50.4375 45.09375 
Q 46.96875 40.921875 40.578125 39.3125 
z
" id="DejaVuSans-51"/>
      </defs>
      <g transform="translate(185.271531 266.598437)scale(0.1 -0.1)">
       <use xlink:href="#DejaVuSans-51"/>
       <use x="63.623047" xlink:href="#DejaVuSans-48"/>
       <use x="127.246094" xlink:href="#DejaVuSans-48"/>
      </g>
     </g>
    </g>
    <g id="xtick_5">
     <g id="line2d_5">
      <g>
       <use style="stroke:#000000;stroke-width:0.8;" x="236.68098" xlink:href="#mce5f706bd1" y="252"/>
      </g>
     </g>
     <g id="text_5">
      <!-- 400 -->
      <defs>
       <path d="M 37.796875 64.3125 
L 12.890625 25.390625 
L 37.796875 25.390625 
z
M 35.203125 72.90625 
L 47.609375 72.90625 
L 47.609375 25.390625 
L 58.015625 25.390625 
L 58.015625 17.1875 
L 47.609375 17.1875 
L 47.609375 0 
L 37.796875 0 
L 37.796875 17.1875 
L 4.890625 17.1875 
L 4.890625 26.703125 
z
" id="DejaVuSans-52"/>
      </defs>
      <g transform="translate(227.13723 266.598437)scale(0.1 -0.1)">
       <use xlink:href="#DejaVuSans-52"/>
       <use x="63.623047" xlink:href="#DejaVuSans-48"/>
       <use x="127.246094" xlink:href="#DejaVuSans-48"/>
      </g>
     </g>
    </g>
    <g id="xtick_6">
     <g id="line2d_6">
      <g>
       <use style="stroke:#000000;stroke-width:0.8;" x="278.54668" xlink:href="#mce5f706bd1" y="252"/>
      </g>
     </g>
     <g id="text_6">
      <!-- 500 -->
      <defs>
       <path d="M 10.796875 72.90625 
L 49.515625 72.90625 
L 49.515625 64.59375 
L 19.828125 64.59375 
L 19.828125 46.734375 
Q 21.96875 47.46875 24.109375 47.828125 
Q 26.265625 48.1875 28.421875 48.1875 
Q 40.625 48.1875 47.75 41.5 
Q 54.890625 34.8125 54.890625 23.390625 
Q 54.890625 11.625 47.5625 5.09375 
Q 40.234375 -1.421875 26.90625 -1.421875 
Q 22.3125 -1.421875 17.546875 -0.640625 
Q 12.796875 0.140625 7.71875 1.703125 
L 7.71875 11.625 
Q 12.109375 9.234375 16.796875 8.0625 
Q 21.484375 6.890625 26.703125 6.890625 
Q 35.15625 6.890625 40.078125 11.328125 
Q 45.015625 15.765625 45.015625 23.390625 
Q 45.015625 31 40.078125 35.4375 
Q 35.15625 39.890625 26.703125 39.890625 
Q 22.75 39.890625 18.8125 39.015625 
Q 14.890625 38.140625 10.796875 36.28125 
z
" id="DejaVuSans-53"/>
      </defs>
      <g transform="translate(269.00293 266.598437)scale(0.1 -0.1)">
       <use xlink:href="#DejaVuSans-53"/>
       <use x="63.623047" xlink:href="#DejaVuSans-48"/>
       <use x="127.246094" xlink:href="#DejaVuSans-48"/>
      </g>
     </g>
    </g>
    <g id="xtick_7">
     <g id="line2d_7">
      <g>
       <use style="stroke:#000000;stroke-width:0.8;" x="320.41238" xlink:href="#mce5f706bd1" y="252"/>
      </g>
     </g>
     <g id="text_7">
      <!-- 600 -->
      <defs>
       <path d="M 33.015625 40.375 
Q 26.375 40.375 22.484375 35.828125 
Q 18.609375 31.296875 18.609375 23.390625 
Q 18.609375 15.53125 22.484375 10.953125 
Q 26.375 6.390625 33.015625 6.390625 
Q 39.65625 6.390625 43.53125 10.953125 
Q 47.40625 15.53125 47.40625 23.390625 
Q 47.40625 31.296875 43.53125 35.828125 
Q 39.65625 40.375 33.015625 40.375 
z
M 52.59375 71.296875 
L 52.59375 62.3125 
Q 48.875 64.0625 45.09375 64.984375 
Q 41.3125 65.921875 37.59375 65.921875 
Q 27.828125 65.921875 22.671875 59.328125 
Q 17.53125 52.734375 16.796875 39.40625 
Q 19.671875 43.65625 24.015625 45.921875 
Q 28.375 48.1875 33.59375 48.1875 
Q 44.578125 48.1875 50.953125 41.515625 
Q 57.328125 34.859375 57.328125 23.390625 
Q 57.328125 12.15625 50.6875 5.359375 
Q 44.046875 -1.421875 33.015625 -1.421875 
Q 20.359375 -1.421875 13.671875 8.265625 
Q 6.984375 17.96875 6.984375 36.375 
Q 6.984375 53.65625 15.1875 63.9375 
Q 23.390625 74.21875 37.203125 74.21875 
Q 40.921875 74.21875 44.703125 73.484375 
Q 48.484375 72.75 52.59375 71.296875 
z
" id="DejaVuSans-54"/>
      </defs>
      <g transform="translate(310.86863 266.598437)scale(0.1 -0.1)">
       <use xlink:href="#DejaVuSans-54"/>
       <use x="63.623047" xlink:href="#DejaVuSans-48"/>
       <use x="127.246094" xlink:href="#DejaVuSans-48"/>
      </g>
     </g>
    </g>
    <g id="xtick_8">
     <g id="line2d_8">
      <g>
       <use style="stroke:#000000;stroke-width:0.8;" x="362.278079" xlink:href="#mce5f706bd1" y="252"/>
      </g>
     </g>
     <g id="text_8">
      <!-- 700 -->
      <defs>
       <path d="M 8.203125 72.90625 
L 55.078125 72.90625 
L 55.078125 68.703125 
L 28.609375 0 
L 18.3125 0 
L 43.21875 64.59375 
L 8.203125 64.59375 
z
" id="DejaVuSans-55"/>
      </defs>
      <g transform="translate(352.734329 266.598437)scale(0.1 -0.1)">
       <use xlink:href="#DejaVuSans-55"/>
       <use x="63.623047" xlink:href="#DejaVuSans-48"/>
       <use x="127.246094" xlink:href="#DejaVuSans-48"/>
      </g>
     </g>
    </g>
    <g id="text_9">
     <!-- sampling iter. -->
     <defs>
      <path d="M 44.28125 53.078125 
L 44.28125 44.578125 
Q 40.484375 46.53125 36.375 47.5 
Q 32.28125 48.484375 27.875 48.484375 
Q 21.1875 48.484375 17.84375 46.4375 
Q 14.5 44.390625 14.5 40.28125 
Q 14.5 37.15625 16.890625 35.375 
Q 19.28125 33.59375 26.515625 31.984375 
L 29.59375 31.296875 
Q 39.15625 29.25 43.1875 25.515625 
Q 47.21875 21.78125 47.21875 15.09375 
Q 47.21875 7.46875 41.1875 3.015625 
Q 35.15625 -1.421875 24.609375 -1.421875 
Q 20.21875 -1.421875 15.453125 -0.5625 
Q 10.6875 0.296875 5.421875 2 
L 5.421875 11.28125 
Q 10.40625 8.6875 15.234375 7.390625 
Q 20.0625 6.109375 24.8125 6.109375 
Q 31.15625 6.109375 34.5625 8.28125 
Q 37.984375 10.453125 37.984375 14.40625 
Q 37.984375 18.0625 35.515625 20.015625 
Q 33.0625 21.96875 24.703125 23.78125 
L 21.578125 24.515625 
Q 13.234375 26.265625 9.515625 29.90625 
Q 5.8125 33.546875 5.8125 39.890625 
Q 5.8125 47.609375 11.28125 51.796875 
Q 16.75 56 26.8125 56 
Q 31.78125 56 36.171875 55.265625 
Q 40.578125 54.546875 44.28125 53.078125 
z
" id="DejaVuSans-115"/>
      <path d="M 34.28125 27.484375 
Q 23.390625 27.484375 19.1875 25 
Q 14.984375 22.515625 14.984375 16.5 
Q 14.984375 11.71875 18.140625 8.90625 
Q 21.296875 6.109375 26.703125 6.109375 
Q 34.1875 6.109375 38.703125 11.40625 
Q 43.21875 16.703125 43.21875 25.484375 
L 43.21875 27.484375 
z
M 52.203125 31.203125 
L 52.203125 0 
L 43.21875 0 
L 43.21875 8.296875 
Q 40.140625 3.328125 35.546875 0.953125 
Q 30.953125 -1.421875 24.3125 -1.421875 
Q 15.921875 -1.421875 10.953125 3.296875 
Q 6 8.015625 6 15.921875 
Q 6 25.140625 12.171875 29.828125 
Q 18.359375 34.515625 30.609375 34.515625 
L 43.21875 34.515625 
L 43.21875 35.40625 
Q 43.21875 41.609375 39.140625 45 
Q 35.0625 48.390625 27.6875 48.390625 
Q 23 48.390625 18.546875 47.265625 
Q 14.109375 46.140625 10.015625 43.890625 
L 10.015625 52.203125 
Q 14.9375 54.109375 19.578125 55.046875 
Q 24.21875 56 28.609375 56 
Q 40.484375 56 46.34375 49.84375 
Q 52.203125 43.703125 52.203125 31.203125 
z
" id="DejaVuSans-97"/>
      <path d="M 52 44.1875 
Q 55.375 50.25 60.0625 53.125 
Q 64.75 56 71.09375 56 
Q 79.640625 56 84.28125 50.015625 
Q 88.921875 44.046875 88.921875 33.015625 
L 88.921875 0 
L 79.890625 0 
L 79.890625 32.71875 
Q 79.890625 40.578125 77.09375 44.375 
Q 74.3125 48.1875 68.609375 48.1875 
Q 61.625 48.1875 57.5625 43.546875 
Q 53.515625 38.921875 53.515625 30.90625 
L 53.515625 0 
L 44.484375 0 
L 44.484375 32.71875 
Q 44.484375 40.625 41.703125 44.40625 
Q 38.921875 48.1875 33.109375 48.1875 
Q 26.21875 48.1875 22.15625 43.53125 
Q 18.109375 38.875 18.109375 30.90625 
L 18.109375 0 
L 9.078125 0 
L 9.078125 54.6875 
L 18.109375 54.6875 
L 18.109375 46.1875 
Q 21.1875 51.21875 25.484375 53.609375 
Q 29.78125 56 35.6875 56 
Q 41.65625 56 45.828125 52.96875 
Q 50 49.953125 52 44.1875 
z
" id="DejaVuSans-109"/>
      <path d="M 18.109375 8.203125 
L 18.109375 -20.796875 
L 9.078125 -20.796875 
L 9.078125 54.6875 
L 18.109375 54.6875 
L 18.109375 46.390625 
Q 20.953125 51.265625 25.265625 53.625 
Q 29.59375 56 35.59375 56 
Q 45.5625 56 51.78125 48.09375 
Q 58.015625 40.1875 58.015625 27.296875 
Q 58.015625 14.40625 51.78125 6.484375 
Q 45.5625 -1.421875 35.59375 -1.421875 
Q 29.59375 -1.421875 25.265625 0.953125 
Q 20.953125 3.328125 18.109375 8.203125 
z
M 48.6875 27.296875 
Q 48.6875 37.203125 44.609375 42.84375 
Q 40.53125 48.484375 33.40625 48.484375 
Q 26.265625 48.484375 22.1875 42.84375 
Q 18.109375 37.203125 18.109375 27.296875 
Q 18.109375 17.390625 22.1875 11.75 
Q 26.265625 6.109375 33.40625 6.109375 
Q 40.53125 6.109375 44.609375 11.75 
Q 48.6875 17.390625 48.6875 27.296875 
z
" id="DejaVuSans-112"/>
      <path d="M 9.421875 75.984375 
L 18.40625 75.984375 
L 18.40625 0 
L 9.421875 0 
z
" id="DejaVuSans-108"/>
      <path d="M 9.421875 54.6875 
L 18.40625 54.6875 
L 18.40625 0 
L 9.421875 0 
z
M 9.421875 75.984375 
L 18.40625 75.984375 
L 18.40625 64.59375 
L 9.421875 64.59375 
z
" id="DejaVuSans-105"/>
      <path d="M 54.890625 33.015625 
L 54.890625 0 
L 45.90625 0 
L 45.90625 32.71875 
Q 45.90625 40.484375 42.875 44.328125 
Q 39.84375 48.1875 33.796875 48.1875 
Q 26.515625 48.1875 22.3125 43.546875 
Q 18.109375 38.921875 18.109375 30.90625 
L 18.109375 0 
L 9.078125 0 
L 9.078125 54.6875 
L 18.109375 54.6875 
L 18.109375 46.1875 
Q 21.34375 51.125 25.703125 53.5625 
Q 30.078125 56 35.796875 56 
Q 45.21875 56 50.046875 50.171875 
Q 54.890625 44.34375 54.890625 33.015625 
z
" id="DejaVuSans-110"/>
      <path d="M 45.40625 27.984375 
Q 45.40625 37.75 41.375 43.109375 
Q 37.359375 48.484375 30.078125 48.484375 
Q 22.859375 48.484375 18.828125 43.109375 
Q 14.796875 37.75 14.796875 27.984375 
Q 14.796875 18.265625 18.828125 12.890625 
Q 22.859375 7.515625 30.078125 7.515625 
Q 37.359375 7.515625 41.375 12.890625 
Q 45.40625 18.265625 45.40625 27.984375 
z
M 54.390625 6.78125 
Q 54.390625 -7.171875 48.1875 -13.984375 
Q 42 -20.796875 29.203125 -20.796875 
Q 24.46875 -20.796875 20.265625 -20.09375 
Q 16.0625 -19.390625 12.109375 -17.921875 
L 12.109375 -9.1875 
Q 16.0625 -11.328125 19.921875 -12.34375 
Q 23.78125 -13.375 27.78125 -13.375 
Q 36.625 -13.375 41.015625 -8.765625 
Q 45.40625 -4.15625 45.40625 5.171875 
L 45.40625 9.625 
Q 42.625 4.78125 38.28125 2.390625 
Q 33.9375 0 27.875 0 
Q 17.828125 0 11.671875 7.65625 
Q 5.515625 15.328125 5.515625 27.984375 
Q 5.515625 40.671875 11.671875 48.328125 
Q 17.828125 56 27.875 56 
Q 33.9375 56 38.28125 53.609375 
Q 42.625 51.21875 45.40625 46.390625 
L 45.40625 54.6875 
L 54.390625 54.6875 
z
" id="DejaVuSans-103"/>
      <path id="DejaVuSans-32"/>
      <path d="M 18.3125 70.21875 
L 18.3125 54.6875 
L 36.8125 54.6875 
L 36.8125 47.703125 
L 18.3125 47.703125 
L 18.3125 18.015625 
Q 18.3125 11.328125 20.140625 9.421875 
Q 21.96875 7.515625 27.59375 7.515625 
L 36.8125 7.515625 
L 36.8125 0 
L 27.59375 0 
Q 17.1875 0 13.234375 3.875 
Q 9.28125 7.765625 9.28125 18.015625 
L 9.28125 47.703125 
L 2.6875 47.703125 
L 2.6875 54.6875 
L 9.28125 54.6875 
L 9.28125 70.21875 
z
" id="DejaVuSans-116"/>
      <path d="M 56.203125 29.59375 
L 56.203125 25.203125 
L 14.890625 25.203125 
Q 15.484375 15.921875 20.484375 11.0625 
Q 25.484375 6.203125 34.421875 6.203125 
Q 39.59375 6.203125 44.453125 7.46875 
Q 49.3125 8.734375 54.109375 11.28125 
L 54.109375 2.78125 
Q 49.265625 0.734375 44.1875 -0.34375 
Q 39.109375 -1.421875 33.890625 -1.421875 
Q 20.796875 -1.421875 13.15625 6.1875 
Q 5.515625 13.8125 5.515625 26.8125 
Q 5.515625 40.234375 12.765625 48.109375 
Q 20.015625 56 32.328125 56 
Q 43.359375 56 49.78125 48.890625 
Q 56.203125 41.796875 56.203125 29.59375 
z
M 47.21875 32.234375 
Q 47.125 39.59375 43.09375 43.984375 
Q 39.0625 48.390625 32.421875 48.390625 
Q 24.90625 48.390625 20.390625 44.140625 
Q 15.875 39.890625 15.1875 32.171875 
z
" id="DejaVuSans-101"/>
      <path d="M 41.109375 46.296875 
Q 39.59375 47.171875 37.8125 47.578125 
Q 36.03125 48 33.890625 48 
Q 26.265625 48 22.1875 43.046875 
Q 18.109375 38.09375 18.109375 28.8125 
L 18.109375 0 
L 9.078125 0 
L 9.078125 54.6875 
L 18.109375 54.6875 
L 18.109375 46.1875 
Q 20.953125 51.171875 25.484375 53.578125 
Q 30.03125 56 36.53125 56 
Q 37.453125 56 38.578125 55.875 
Q 39.703125 55.765625 41.0625 55.515625 
z
" id="DejaVuSans-114"/>
      <path d="M 10.6875 12.40625 
L 21 12.40625 
L 21 0 
L 10.6875 0 
z
" id="DejaVuSans-46"/>
     </defs>
     <g transform="translate(180.015938 281.79625)scale(0.12 -0.12)">
      <use xlink:href="#DejaVuSans-115"/>
      <use x="52.099609" xlink:href="#DejaVuSans-97"/>
      <use x="113.378906" xlink:href="#DejaVuSans-109"/>
      <use x="210.791016" xlink:href="#DejaVuSans-112"/>
      <use x="274.267578" xlink:href="#DejaVuSans-108"/>
      <use x="302.050781" xlink:href="#DejaVuSans-105"/>
      <use x="329.833984" xlink:href="#DejaVuSans-110"/>
      <use x="393.212891" xlink:href="#DejaVuSans-103"/>
      <use x="456.689453" xlink:href="#DejaVuSans-32"/>
      <use x="488.476562" xlink:href="#DejaVuSans-105"/>
      <use x="516.259766" xlink:href="#DejaVuSans-116"/>
      <use x="555.46875" xlink:href="#DejaVuSans-101"/>
      <use x="616.992188" xlink:href="#DejaVuSans-114"/>
      <use x="657.964844" xlink:href="#DejaVuSans-46"/>
     </g>
    </g>
   </g>
   <g id="matplotlib.axis_2">
    <g id="ytick_1">
     <g id="line2d_9">
      <defs>
       <path d="M 0 0 
L -3.5 0 
" id="ma8ccc1b2fb" style="stroke:#000000;stroke-width:0.8;"/>
      </defs>
      <g>
       <use style="stroke:#000000;stroke-width:0.8;" x="54" xlink:href="#ma8ccc1b2fb" y="244.985377"/>
      </g>
     </g>
     <g id="text_10">
      <!-- 0.04 -->
      <g transform="translate(24.734375 248.784596)scale(0.1 -0.1)">
       <use xlink:href="#DejaVuSans-48"/>
       <use x="63.623047" xlink:href="#DejaVuSans-46"/>
       <use x="95.410156" xlink:href="#DejaVuSans-48"/>
       <use x="159.033203" xlink:href="#DejaVuSans-52"/>
      </g>
     </g>
    </g>
    <g id="ytick_2">
     <g id="line2d_10">
      <g>
       <use style="stroke:#000000;stroke-width:0.8;" x="54" xlink:href="#ma8ccc1b2fb" y="200.058294"/>
      </g>
     </g>
     <g id="text_11">
      <!-- 0.05 -->
      <g transform="translate(24.734375 203.857513)scale(0.1 -0.1)">
       <use xlink:href="#DejaVuSans-48"/>
       <use x="63.623047" xlink:href="#DejaVuSans-46"/>
       <use x="95.410156" xlink:href="#DejaVuSans-48"/>
       <use x="159.033203" xlink:href="#DejaVuSans-53"/>
      </g>
     </g>
    </g>
    <g id="ytick_3">
     <g id="line2d_11">
      <g>
       <use style="stroke:#000000;stroke-width:0.8;" x="54" xlink:href="#ma8ccc1b2fb" y="155.131211"/>
      </g>
     </g>
     <g id="text_12">
      <!-- 0.06 -->
      <g transform="translate(24.734375 158.930429)scale(0.1 -0.1)">
       <use xlink:href="#DejaVuSans-48"/>
       <use x="63.623047" xlink:href="#DejaVuSans-46"/>
       <use x="95.410156" xlink:href="#DejaVuSans-48"/>
       <use x="159.033203" xlink:href="#DejaVuSans-54"/>
      </g>
     </g>
    </g>
    <g id="ytick_4">
     <g id="line2d_12">
      <g>
       <use style="stroke:#000000;stroke-width:0.8;" x="54" xlink:href="#ma8ccc1b2fb" y="110.204127"/>
      </g>
     </g>
     <g id="text_13">
      <!-- 0.07 -->
      <g transform="translate(24.734375 114.003346)scale(0.1 -0.1)">
       <use xlink:href="#DejaVuSans-48"/>
       <use x="63.623047" xlink:href="#DejaVuSans-46"/>
       <use x="95.410156" xlink:href="#DejaVuSans-48"/>
       <use x="159.033203" xlink:href="#DejaVuSans-55"/>
      </g>
     </g>
    </g>
    <g id="ytick_5">
     <g id="line2d_13">
      <g>
       <use style="stroke:#000000;stroke-width:0.8;" x="54" xlink:href="#ma8ccc1b2fb" y="65.277044"/>
      </g>
     </g>
     <g id="text_14">
      <!-- 0.08 -->
      <defs>
       <path d="M 31.78125 34.625 
Q 24.75 34.625 20.71875 30.859375 
Q 16.703125 27.09375 16.703125 20.515625 
Q 16.703125 13.921875 20.71875 10.15625 
Q 24.75 6.390625 31.78125 6.390625 
Q 38.8125 6.390625 42.859375 10.171875 
Q 46.921875 13.96875 46.921875 20.515625 
Q 46.921875 27.09375 42.890625 30.859375 
Q 38.875 34.625 31.78125 34.625 
z
M 21.921875 38.8125 
Q 15.578125 40.375 12.03125 44.71875 
Q 8.5 49.078125 8.5 55.328125 
Q 8.5 64.0625 14.71875 69.140625 
Q 20.953125 74.21875 31.78125 74.21875 
Q 42.671875 74.21875 48.875 69.140625 
Q 55.078125 64.0625 55.078125 55.328125 
Q 55.078125 49.078125 51.53125 44.71875 
Q 48 40.375 41.703125 38.8125 
Q 48.828125 37.15625 52.796875 32.3125 
Q 56.78125 27.484375 56.78125 20.515625 
Q 56.78125 9.90625 50.3125 4.234375 
Q 43.84375 -1.421875 31.78125 -1.421875 
Q 19.734375 -1.421875 13.25 4.234375 
Q 6.78125 9.90625 6.78125 20.515625 
Q 6.78125 27.484375 10.78125 32.3125 
Q 14.796875 37.15625 21.921875 38.8125 
z
M 18.3125 54.390625 
Q 18.3125 48.734375 21.84375 45.5625 
Q 25.390625 42.390625 31.78125 42.390625 
Q 38.140625 42.390625 41.71875 45.5625 
Q 45.3125 48.734375 45.3125 54.390625 
Q 45.3125 60.0625 41.71875 63.234375 
Q 38.140625 66.40625 31.78125 66.40625 
Q 25.390625 66.40625 21.84375 63.234375 
Q 18.3125 60.0625 18.3125 54.390625 
z
" id="DejaVuSans-56"/>
      </defs>
      <g transform="translate(24.734375 69.076263)scale(0.1 -0.1)">
       <use xlink:href="#DejaVuSans-48"/>
       <use x="63.623047" xlink:href="#DejaVuSans-46"/>
       <use x="95.410156" xlink:href="#DejaVuSans-48"/>
       <use x="159.033203" xlink:href="#DejaVuSans-56"/>
      </g>
     </g>
    </g>
    <g id="text_15">
     <!-- estimated mass (kg) -->
     <defs>
      <path d="M 45.40625 46.390625 
L 45.40625 75.984375 
L 54.390625 75.984375 
L 54.390625 0 
L 45.40625 0 
L 45.40625 8.203125 
Q 42.578125 3.328125 38.25 0.953125 
Q 33.9375 -1.421875 27.875 -1.421875 
Q 17.96875 -1.421875 11.734375 6.484375 
Q 5.515625 14.40625 5.515625 27.296875 
Q 5.515625 40.1875 11.734375 48.09375 
Q 17.96875 56 27.875 56 
Q 33.9375 56 38.25 53.625 
Q 42.578125 51.265625 45.40625 46.390625 
z
M 14.796875 27.296875 
Q 14.796875 17.390625 18.875 11.75 
Q 22.953125 6.109375 30.078125 6.109375 
Q 37.203125 6.109375 41.296875 11.75 
Q 45.40625 17.390625 45.40625 27.296875 
Q 45.40625 37.203125 41.296875 42.84375 
Q 37.203125 48.484375 30.078125 48.484375 
Q 22.953125 48.484375 18.875 42.84375 
Q 14.796875 37.203125 14.796875 27.296875 
z
" id="DejaVuSans-100"/>
      <path d="M 31 75.875 
Q 24.46875 64.65625 21.28125 53.65625 
Q 18.109375 42.671875 18.109375 31.390625 
Q 18.109375 20.125 21.3125 9.0625 
Q 24.515625 -2 31 -13.1875 
L 23.1875 -13.1875 
Q 15.875 -1.703125 12.234375 9.375 
Q 8.59375 20.453125 8.59375 31.390625 
Q 8.59375 42.28125 12.203125 53.3125 
Q 15.828125 64.359375 23.1875 75.875 
z
" id="DejaVuSans-40"/>
      <path d="M 9.078125 75.984375 
L 18.109375 75.984375 
L 18.109375 31.109375 
L 44.921875 54.6875 
L 56.390625 54.6875 
L 27.390625 29.109375 
L 57.625 0 
L 45.90625 0 
L 18.109375 26.703125 
L 18.109375 0 
L 9.078125 0 
z
" id="DejaVuSans-107"/>
      <path d="M 8.015625 75.875 
L 15.828125 75.875 
Q 23.140625 64.359375 26.78125 53.3125 
Q 30.421875 42.28125 30.421875 31.390625 
Q 30.421875 20.453125 26.78125 9.375 
Q 23.140625 -1.703125 15.828125 -13.1875 
L 8.015625 -13.1875 
Q 14.5 -2 17.703125 9.0625 
Q 20.90625 20.125 20.90625 31.390625 
Q 20.90625 42.671875 17.703125 53.65625 
Q 14.5 64.65625 8.015625 75.875 
z
" id="DejaVuSans-41"/>
     </defs>
     <g transform="translate(18.23875 205.0425)rotate(-90)scale(0.12 -0.12)">
      <use xlink:href="#DejaVuSans-101"/>
      <use x="61.523438" xlink:href="#DejaVuSans-115"/>
      <use x="113.623047" xlink:href="#DejaVuSans-116"/>
      <use x="152.832031" xlink:href="#DejaVuSans-105"/>
      <use x="180.615234" xlink:href="#DejaVuSans-109"/>
      <use x="278.027344" xlink:href="#DejaVuSans-97"/>
      <use x="339.306641" xlink:href="#DejaVuSans-116"/>
      <use x="378.515625" xlink:href="#DejaVuSans-101"/>
      <use x="440.039062" xlink:href="#DejaVuSans-100"/>
      <use x="503.515625" xlink:href="#DejaVuSans-32"/>
      <use x="535.302734" xlink:href="#DejaVuSans-109"/>
      <use x="632.714844" xlink:href="#DejaVuSans-97"/>
      <use x="693.994141" xlink:href="#DejaVuSans-115"/>
      <use x="746.09375" xlink:href="#DejaVuSans-115"/>
      <use x="798.193359" xlink:href="#DejaVuSans-32"/>
      <use x="829.980469" xlink:href="#DejaVuSans-40"/>
      <use x="868.994141" xlink:href="#DejaVuSans-107"/>
      <use x="926.904297" xlink:href="#DejaVuSans-103"/>
      <use x="990.380859" xlink:href="#DejaVuSans-41"/>
     </g>
    </g>
   </g>
   <g id="line2d_14">
    <path clip-path="url(#p358f55fc7f)" d="M 69.218182 177.594752 
L 72.567438 177.592596 
L 72.986095 109.37288 
L 73.404752 102.992129 
L 73.823409 98.321821 
L 74.242066 96.333803 
L 75.07938 95.692277 
L 75.498037 93.262598 
L 76.335351 91.571274 
L 76.754008 91.196353 
L 77.591322 91.083959 
L 78.847293 91.083956 
L 79.26595 90.91885 
L 79.684607 89.860144 
L 80.103264 89.337625 
L 80.521921 89.109964 
L 81.777892 89.07316 
L 83.033863 89.151102 
L 83.871177 89.300832 
L 86.383119 89.520296 
L 88.057747 89.538031 
L 88.476404 90.440441 
L 88.895061 90.700061 
L 89.313718 79.170588 
L 90.569689 79.1017 
L 91.82566 78.845966 
L 92.244317 78.455304 
L 93.081631 76.045558 
L 93.918945 75.942791 
L 94.337602 75.94279 
L 94.756259 75.344623 
L 95.174916 75.179829 
L 98.105515 75.095318 
L 99.361486 75.041712 
L 99.780143 75.37753 
L 100.1988 75.374422 
L 100.617457 75.067449 
L 105.222684 75.059701 
L 105.641341 74.470576 
L 106.478654 74.405324 
L 106.897311 74.292591 
L 107.315968 70.568586 
L 109.409253 70.455274 
L 109.82791 72.667312 
L 110.246567 68.303197 
L 112.758509 68.256147 
L 114.851794 68.107589 
L 117.363736 67.952372 
L 127.411504 67.891085 
L 128.248818 67.807658 
L 128.667475 67.805411 
L 129.086132 67.068378 
L 130.342103 67.110344 
L 132.016731 67.061789 
L 132.435388 68.300497 
L 134.110016 68.389877 
L 134.528673 68.380116 
L 134.94733 67.973406 
L 136.621958 67.935739 
L 137.459272 68.113982 
L 138.296586 68.028454 
L 138.715243 67.764747 
L 140.389871 67.875918 
L 143.739127 67.982453 
L 144.157784 68.165738 
L 145.832412 68.210781 
L 150.856296 68.307597 
L 152.112267 68.432879 
L 153.786895 68.435998 
L 154.205552 68.501032 
L 155.042866 68.762204 
L 155.88018 68.763131 
L 156.298837 69.169727 
L 156.717494 69.319861 
L 158.392122 69.408884 
L 160.904064 69.544205 
L 162.160035 69.654365 
L 163.834663 70.052523 
L 168.43989 70.258484 
L 170.114518 70.504515 
L 170.533175 70.673542 
L 173.045117 70.759769 
L 174.719745 70.794386 
L 175.557059 70.95142 
L 177.650344 71.03029 
L 179.743629 71.114031 
L 180.162286 71.390705 
L 180.9996 71.534475 
L 182.674228 71.635113 
L 184.348856 71.947045 
L 187.279455 72.050511 
L 188.535426 72.135874 
L 190.628711 72.170139 
L 193.140653 72.241642 
L 193.977967 72.317559 
L 198.164537 72.328698 
L 198.583194 73.368105 
L 199.839165 73.423234 
L 201.095136 73.423234 
L 201.513793 73.623473 
L 202.351107 74.756524 
L 202.769764 74.926862 
L 204.863049 74.965358 
L 207.374991 74.993479 
L 208.212305 75.139211 
L 209.468276 75.236904 
L 210.30559 75.29678 
L 211.980218 75.407214 
L 212.398875 75.558732 
L 212.817532 81.090219 
L 213.654846 81.121448 
L 215.748131 81.700922 
L 218.67873 81.940741 
L 219.097387 82.051976 
L 219.516044 83.438263 
L 219.934701 83.576172 
L 221.609328 83.62799 
L 222.027985 83.252148 
L 222.865299 83.40015 
L 223.702613 83.412703 
L 224.12127 83.606255 
L 224.539927 83.609674 
L 224.958584 84.145845 
L 226.214555 84.835407 
L 232.913067 85.035744 
L 235.843666 85.250626 
L 241.286207 85.323804 
L 241.704864 85.558418 
L 254.264574 85.666261 
L 254.683231 86.233307 
L 257.61383 86.412263 
L 260.125772 86.509964 
L 261.8004 86.624823 
L 264.730999 86.70501 
L 267.242941 86.722108 
L 268.498912 86.992037 
L 269.754883 87.128508 
L 271.010854 87.452836 
L 272.266825 87.586264 
L 273.522796 87.607377 
L 273.941453 87.782371 
L 275.197424 87.797708 
L 276.034738 87.92592 
L 277.709366 88.05141 
L 278.54668 88.280494 
L 279.383994 88.391114 
L 279.802651 88.420565 
L 280.221308 88.66571 
L 282.314593 89.21195 
L 283.989221 89.233084 
L 284.826535 89.355561 
L 285.663849 89.407714 
L 286.082506 89.721103 
L 287.338477 90.093922 
L 292.781018 90.263442 
L 294.874303 90.442486 
L 305.759385 91.060432 
L 310.364612 91.078267 
L 310.783269 92.138857 
L 311.201926 91.749055 
L 317.481781 91.912638 
L 318.737752 92.000104 
L 319.156409 92.001485 
L 319.993723 92.130701 
L 323.342979 92.210216 
L 323.761636 92.67049 
L 324.180293 92.856291 
L 327.948206 92.97209 
L 330.460148 93.20513 
L 331.297462 93.536675 
L 337.158659 93.562802 
L 337.577316 93.439669 
L 337.995973 93.611825 
L 338.41463 93.64208 
L 338.833287 93.796807 
L 339.251944 94.79819 
L 352.648968 94.962941 
L 353.067625 94.847064 
L 361.859422 94.946912 
L 365.208678 95.010171 
L 368.976591 95.050325 
L 370.651219 95.120185 
L 371.488533 95.040909 
L 373.581818 95.087294 
L 373.581818 95.087294 
" style="fill:none;stroke:#1f77b4;stroke-linecap:square;stroke-width:1.5;"/>
   </g>
   <g id="line2d_15">
    <path clip-path="url(#p358f55fc7f)" d="M 69.218182 106.609961 
L 373.581818 106.609961 
L 373.581818 106.609961 
" style="fill:none;stroke:#ff7f0e;stroke-dasharray:5.55,2.4;stroke-dashoffset:0;stroke-width:1.5;"/>
   </g>
   <g id="patch_3">
    <path d="M 54 252 
L 54 34.56 
" style="fill:none;stroke:#000000;stroke-linecap:square;stroke-linejoin:miter;stroke-width:0.8;"/>
   </g>
   <g id="patch_4">
    <path d="M 388.8 252 
L 388.8 34.56 
" style="fill:none;stroke:#000000;stroke-linecap:square;stroke-linejoin:miter;stroke-width:0.8;"/>
   </g>
   <g id="patch_5">
    <path d="M 54 252 
L 388.8 252 
" style="fill:none;stroke:#000000;stroke-linecap:square;stroke-linejoin:miter;stroke-width:0.8;"/>
   </g>
   <g id="patch_6">
    <path d="M 54 34.56 
L 388.8 34.56 
" style="fill:none;stroke:#000000;stroke-linecap:square;stroke-linejoin:miter;stroke-width:0.8;"/>
   </g>
   <g id="legend_1">
    <g id="patch_7">
     <path d="M 282.015 79.3875 
L 380.4 79.3875 
Q 382.8 79.3875 382.8 76.9875 
L 382.8 42.96 
Q 382.8 40.56 380.4 40.56 
L 282.015 40.56 
Q 279.615 40.56 279.615 42.96 
L 279.615 76.9875 
Q 279.615 79.3875 282.015 79.3875 
z
" style="fill:#ffffff;opacity:0.8;stroke:#cccccc;stroke-linejoin:miter;"/>
    </g>
    <g id="line2d_16">
     <path d="M 284.415 50.278125 
L 308.415 50.278125 
" style="fill:none;stroke:#1f77b4;stroke-linecap:square;stroke-width:1.5;"/>
    </g>
    <g id="line2d_17"/>
    <g id="text_16">
     <!-- est. mass -->
     <g transform="translate(318.015 54.478125)scale(0.12 -0.12)">
      <use xlink:href="#DejaVuSans-101"/>
      <use x="61.523438" xlink:href="#DejaVuSans-115"/>
      <use x="113.623047" xlink:href="#DejaVuSans-116"/>
      <use x="152.832031" xlink:href="#DejaVuSans-46"/>
      <use x="184.619141" xlink:href="#DejaVuSans-32"/>
      <use x="216.40625" xlink:href="#DejaVuSans-109"/>
      <use x="313.818359" xlink:href="#DejaVuSans-97"/>
      <use x="375.097656" xlink:href="#DejaVuSans-115"/>
      <use x="427.197266" xlink:href="#DejaVuSans-115"/>
     </g>
    </g>
    <g id="line2d_18">
     <path d="M 284.415 67.891875 
L 308.415 67.891875 
" style="fill:none;stroke:#ff7f0e;stroke-dasharray:5.55,2.4;stroke-dashoffset:0;stroke-width:1.5;"/>
    </g>
    <g id="line2d_19"/>
    <g id="text_17">
     <!-- true mass -->
     <defs>
      <path d="M 8.5 21.578125 
L 8.5 54.6875 
L 17.484375 54.6875 
L 17.484375 21.921875 
Q 17.484375 14.15625 20.5 10.265625 
Q 23.53125 6.390625 29.59375 6.390625 
Q 36.859375 6.390625 41.078125 11.03125 
Q 45.3125 15.671875 45.3125 23.6875 
L 45.3125 54.6875 
L 54.296875 54.6875 
L 54.296875 0 
L 45.3125 0 
L 45.3125 8.40625 
Q 42.046875 3.421875 37.71875 1 
Q 33.40625 -1.421875 27.6875 -1.421875 
Q 18.265625 -1.421875 13.375 4.4375 
Q 8.5 10.296875 8.5 21.578125 
z
M 31.109375 56 
z
" id="DejaVuSans-117"/>
     </defs>
     <g transform="translate(318.015 72.091875)scale(0.12 -0.12)">
      <use xlink:href="#DejaVuSans-116"/>
      <use x="39.208984" xlink:href="#DejaVuSans-114"/>
      <use x="80.322266" xlink:href="#DejaVuSans-117"/>
      <use x="143.701172" xlink:href="#DejaVuSans-101"/>
      <use x="205.224609" xlink:href="#DejaVuSans-32"/>
      <use x="237.011719" xlink:href="#DejaVuSans-109"/>
      <use x="334.423828" xlink:href="#DejaVuSans-97"/>
      <use x="395.703125" xlink:href="#DejaVuSans-115"/>
      <use x="447.802734" xlink:href="#DejaVuSans-115"/>
     </g>
    </g>
   </g>
  </g>
 </g>
 <defs>
  <clipPath id="p358f55fc7f">
   <rect height="217.44" width="334.8" x="54" y="34.56"/>
  </clipPath>
 </defs>
</svg>
